<?xml version="1.0" standalone="no"?>
<!DOCTYPE svg PUBLIC "-//W3C//DTD SVG 20010904//EN"
 "http://www.w3.org/TR/2001/REC-SVG-20010904/DTD/svg10.dtd">
<svg version="1.0" xmlns="http://www.w3.org/2000/svg"
 width="512.000000pt" height="512.000000pt" viewBox="0 0 512.000000 512.000000"
 preserveAspectRatio="xMidYMid meet">

<g transform="translate(0.000000,512.000000) scale(0.100000,-0.100000)"
fill="#000000" stroke="none">
<path d="M4013 4916 c-504 -96 -938 -545 -1083 -1119 -112 -446 -23 -880 237
-1155 40 -43 73 -79 73 -82 0 -3 -52 -118 -116 -256 l-116 -252 -42 6 c-66 8
-79 17 -116 78 -34 56 -35 62 -41 189 -4 91 -11 142 -24 170 -27 61 -1363
1994 -1411 2041 -23 23 -68 54 -100 70 -53 26 -69 29 -159 29 -91 0 -106 -3
-165 -31 -133 -64 -211 -182 -218 -329 -3 -62 1 -93 17 -137 14 -41 134 -222
408 -620 213 -309 391 -567 395 -573 6 -9 -35 -11 -165 -7 -132 3 -194 0 -267
-12 -173 -30 -348 -101 -504 -203 -90 -59 -278 -247 -339 -339 -148 -224 -217
-454 -217 -720 0 -354 122 -648 374 -900 254 -253 544 -374 901 -374 328 0
613 108 857 326 34 30 62 53 63 52 2 -2 -2 -31 -8 -66 -22 -134 36 -297 138
-390 180 -164 437 -163 615 4 199 186 182 505 -35 677 -27 22 -41 37 -30 34
11 -3 34 -9 50 -13 17 -4 53 -20 82 -36 45 -26 66 -50 182 -218 72 -105 131
-194 131 -199 0 -5 -6 -11 -13 -14 -20 -7 -47 -70 -47 -107 0 -130 211 -236
352 -177 58 24 246 156 275 192 l26 32 60 -31 c93 -48 165 -48 350 3 82 22
159 47 172 55 30 20 49 75 36 108 -5 14 -55 89 -110 166 -86 122 -98 143 -83
150 9 5 99 44 200 87 165 70 185 81 199 110 31 65 17 91 -137 236 -77 73 -140
136 -140 139 0 4 63 47 141 96 78 49 152 102 165 117 24 28 30 69 17 102 -3
10 -68 64 -144 121 -205 153 -147 144 -746 106 -273 -18 -498 -31 -499 -29 -2
2 34 84 79 183 l84 179 99 -3 c132 -5 247 12 374 54 680 226 1125 1082 934
1795 -90 339 -318 582 -624 669 -97 27 -286 35 -387 16z m390 -143 c121 -42
189 -85 282 -178 118 -118 195 -262 237 -446 29 -126 31 -380 5 -514 -94 -464
-376 -853 -752 -1036 -146 -70 -242 -93 -395 -93 -142 0 -211 15 -326 70 -291
143 -468 495 -451 899 28 622 466 1200 997 1316 130 29 288 21 403 -18z
m-3162 -285 c24 -14 51 -34 60 -44 22 -24 1352 -1953 1370 -1985 7 -14 15 -78
19 -155 5 -115 10 -138 33 -186 15 -30 27 -58 27 -61 0 -3 -13 -8 -29 -12 -16
-3 -54 -21 -84 -39 l-56 -34 -25 80 c-54 165 -146 328 -259 458 -65 75 -152
150 -173 150 -19 0 -64 -45 -64 -64 0 -8 11 -28 24 -43 l25 -29 -198 -198
-198 -198 -26 32 c-119 141 -191 380 -173 573 l8 78 36 -7 c21 -4 71 -17 112
-30 91 -29 112 -30 134 -5 29 31 17 73 -25 94 -31 15 -106 118 -469 644 -238
344 -438 644 -446 666 -47 134 23 280 160 334 52 21 166 11 217 -19z m146
-1668 c12 0 13 -16 7 -93 -16 -216 54 -453 182 -620 24 -31 44 -60 44 -65 0
-4 -64 -71 -143 -150 l-142 -142 -390 390 -390 390 30 25 c117 97 298 190 447
230 98 26 259 46 312 39 16 -2 35 -4 43 -4z m2039 -362 c38 -17 70 -32 72 -33
2 -2 -39 -94 -91 -206 l-94 -204 -44 -5 c-37 -4 -126 6 -137 15 -6 5 210 465
218 465 4 0 39 -14 76 -32z m-2564 -405 l388 -388 -142 -142 c-79 -79 -146
-143 -150 -143 -5 0 -36 21 -70 46 -175 129 -406 195 -625 179 l-93 -7 0 79
c0 154 49 362 116 495 48 95 166 267 184 268 3 0 179 -174 392 -387z m1433
262 c87 -132 131 -231 165 -370 13 -52 16 -83 10 -89 -17 -17 -238 -12 -320 8
-88 21 -259 101 -313 147 l-39 32 198 198 198 198 24 -22 c13 -12 48 -58 77
-102z m-482 -435 c168 -113 422 -176 609 -152 l66 8 7 -32 c9 -51 -13 -241
-40 -343 -40 -150 -134 -331 -225 -435 l-33 -38 -389 389 -388 388 147 147
147 148 26 -24 c14 -13 47 -38 73 -56z m2671 66 c19 -8 77 -47 131 -87 77 -58
93 -75 83 -84 -22 -21 -282 -182 -304 -189 -11 -3 -262 12 -557 34 -295 22
-555 40 -577 40 -47 0 -46 -13 -11 145 17 80 17 80 52 83 96 9 1033 70 1087
71 34 0 78 -5 96 -13z m-1584 -1 c0 -6 -147 -692 -157 -732 -3 -15 -13 -23
-25 -23 -38 0 -97 23 -130 50 l-32 27 22 89 c28 118 43 277 36 378 l-7 82 33
38 c36 41 89 71 147 85 43 10 113 14 113 6z m196 -36 c25 -7 44 -17 44 -25 0
-25 -152 -729 -159 -737 -10 -10 -121 14 -121 26 0 12 148 713 155 735 5 15
23 15 81 1z m-998 -1116 c-5 -7 -40 -35 -77 -62 -188 -140 -423 -220 -652
-222 -55 0 -102 1 -103 3 -1 1 0 37 4 78 8 97 -4 234 -30 329 -26 97 -97 241
-154 311 l-44 55 146 148 147 147 387 -387 c297 -297 385 -390 376 -400z
m1737 706 l559 -40 135 -128 c74 -70 136 -132 138 -137 2 -5 -84 -46 -191 -91
l-194 -82 -556 202 -557 202 7 40 c12 76 19 84 61 79 21 -3 290 -23 598 -45z
m-3354 -25 c46 -8 117 -29 157 -45 73 -29 196 -102 219 -130 10 -13 -21 -48
-188 -215 l-199 -199 -25 30 c-99 119 -188 285 -231 433 -34 118 -33 130 14
135 87 9 175 6 253 -9z m3277 -389 c254 -92 474 -177 488 -187 25 -20 219
-287 212 -293 -1 -1 -55 -17 -119 -34 -194 -52 -137 -71 -723 246 -281 152
-513 277 -514 279 -2 1 6 50 18 108 l22 105 77 -28 c42 -16 284 -104 539 -196z
m-2688 -60 c65 -135 84 -220 84 -368 -1 -65 -5 -122 -10 -127 -11 -11 -140 18
-222 50 -117 45 -247 121 -332 193 l-33 28 199 200 199 200 33 -38 c19 -21 55
-83 82 -138z m1499 86 l55 -28 -36 -7 c-20 -4 -62 -19 -93 -35 -30 -16 -54
-26 -53 -22 44 86 63 121 68 121 3 -1 29 -14 59 -29z m268 -181 c68 -34 119
-86 155 -159 32 -64 32 -195 1 -263 -30 -66 -96 -133 -162 -165 -48 -24 -68
-28 -141 -28 -97 0 -150 19 -214 76 -79 69 -123 179 -112 278 28 235 262 364
473 261z m692 -203 l54 -30 -24 -17 c-12 -10 -35 -25 -49 -33 l-27 -16 -61 89
c-34 49 -62 92 -62 95 0 4 26 -8 58 -26 31 -17 81 -45 111 -62z m256 -138 c41
-22 75 -45 75 -50 0 -4 -24 -26 -52 -47 -157 -116 -209 -138 -276 -120 -38 10
-92 53 -92 72 1 11 247 185 263 186 4 0 41 -18 82 -41z"/>
<path d="M4058 4660 c-501 -60 -938 -616 -938 -1195 0 -135 12 -213 51 -330
74 -222 229 -387 429 -456 97 -33 267 -38 382 -10 405 96 751 504 834 985 12
67 15 130 11 236 -6 174 -27 263 -94 400 -87 175 -252 312 -428 354 -82 20
-168 25 -247 16z m214 -131 l37 -9 -31 -68 c-17 -37 -32 -68 -33 -70 -4 -4
-245 111 -245 117 0 3 4 13 9 20 18 29 168 34 263 10z m242 -141 c87 -90 111
-128 93 -152 -12 -16 -22 -14 -130 37 -64 31 -117 60 -117 66 0 23 55 121 68
121 8 0 46 -33 86 -72z m-687 54 c9 -5 0 -33 -31 -102 -24 -52 -48 -96 -53
-97 -5 -2 -40 10 -77 27 l-68 31 43 37 c51 45 150 112 164 112 6 0 15 -4 22
-8z m245 -114 c65 -29 118 -56 118 -59 0 -4 -20 -50 -45 -103 l-44 -96 -98 46
c-54 25 -108 50 -120 55 -13 5 -23 11 -23 15 0 11 85 194 90 194 3 0 58 -23
122 -52z m361 -167 l115 -53 -44 -96 c-25 -53 -46 -97 -48 -99 -1 -2 -56 21
-122 51 -75 35 -118 60 -116 68 8 32 86 188 92 186 4 -2 59 -27 123 -57z
m-755 -28 c6 -3 12 -8 12 -12 1 -15 -84 -191 -92 -191 -8 0 -198 87 -206 94
-4 5 37 72 85 138 l34 47 77 -35 c42 -20 83 -38 90 -41z m256 -118 l116 -54
-33 -73 c-19 -40 -40 -85 -48 -99 l-14 -27 -115 53 c-63 29 -116 57 -118 63
-4 12 78 192 88 192 4 0 60 -25 124 -55z m768 -10 c4 -22 7 -79 7 -127 l1 -87
-70 31 c-38 17 -70 35 -70 39 0 5 19 49 42 99 34 76 45 90 62 88 16 -2 22 -13
28 -43z m-1256 -141 c55 -25 100 -47 102 -49 3 -3 -75 -181 -85 -194 -3 -4
-155 61 -182 78 -11 7 -12 17 -2 55 17 67 51 156 60 156 5 0 53 -21 107 -46z
m857 -18 c53 -25 97 -49 97 -53 0 -6 -71 -165 -86 -191 -2 -4 -227 98 -237
107 -4 4 13 51 37 104 52 111 30 107 189 33z m-517 -138 c63 -28 114 -57 114
-63 0 -7 -19 -53 -42 -103 l-43 -90 -119 54 c-66 30 -121 56 -123 58 -5 4 86
196 93 196 4 0 58 -23 120 -52z m874 -28 c38 -19 38 -19 29 -62 -11 -48 -49
-168 -54 -168 -2 0 -50 22 -108 49 l-106 50 46 99 46 100 55 -25 c30 -13 71
-32 92 -43z m-527 -131 c61 -28 115 -54 120 -58 6 -6 -77 -201 -87 -201 -10 0
-236 111 -236 116 0 8 84 194 88 194 1 0 53 -23 115 -51z m-807 -5 c44 -20 80
-37 82 -38 3 -4 -87 -196 -92 -196 -2 0 -20 7 -40 15 l-36 15 0 120 c0 66 2
120 4 120 2 0 39 -16 82 -36z m319 -146 c63 -29 115 -55 115 -59 0 -4 -20 -51
-44 -103 l-45 -95 -118 55 c-65 31 -119 57 -121 59 -5 5 83 195 90 195 5 0 60
-23 123 -52z m929 -55 c14 -8 10 -21 -34 -94 -28 -46 -55 -88 -59 -92 -4 -4
-51 12 -105 37 l-96 45 24 53 c13 29 33 74 45 100 l22 47 93 -43 c52 -24 102
-48 110 -53z m-597 -99 c54 -25 108 -50 120 -55 23 -8 23 -8 -23 -106 -24 -53
-46 -99 -48 -100 -2 -2 -57 22 -124 54 l-120 58 46 98 c25 53 46 97 48 97 1 0
47 -21 101 -46z m-476 -155 c63 -29 115 -53 117 -55 7 -5 -81 -184 -91 -184
-33 0 -187 166 -187 202 0 21 31 88 41 88 3 0 58 -23 120 -51z m889 -41 c0 -7
-119 -110 -156 -135 -19 -12 -30 -13 -59 -3 -19 6 -35 15 -35 20 0 5 20 51 44
104 l44 95 81 -37 c45 -20 81 -40 81 -44z m-536 -122 c64 -30 116 -57 116 -60
0 -3 -7 -24 -16 -46 -11 -27 -24 -42 -41 -46 -35 -9 -235 0 -254 12 -14 8 -10
21 27 102 24 50 45 92 48 92 2 0 57 -24 120 -54z"/>
<path d="M974 4284 c-22 -32 -11 -68 29 -98 26 -19 30 -19 55 -5 36 19 41 65
12 102 -29 36 -73 37 -96 1z"/>
<path d="M1098 4128 c-42 -34 -38 -43 202 -402 213 -320 232 -346 258 -346 33
0 62 27 62 58 0 21 -397 629 -443 680 -23 24 -55 29 -79 10z"/>
</g>
</svg>
